<?xml version="1.0" encoding="UTF-8" standalone="no"?>
<svg width="107px" height="61px" viewBox="0 0 107 61" version="1.1" xmlns="http://www.w3.org/2000/svg" xmlns:xlink="http://www.w3.org/1999/xlink">
    <!-- Generator: Sketch 41.1 (35376) - http://www.bohemiancoding.com/sketch -->
    <title>Page 1</title>
    <desc>Created with Sketch.</desc>
    <defs>
        <polygon id="path-1" points="20.1220478 26.5972573 20.1220478 0.0543412214 0.0815526087 0.0543412214 0.0815526087 26.5972573 20.1220478 26.5972573"></polygon>
        <polygon id="path-3" points="22.0906617 0.266351145 0.0621530435 0.266351145 0.0621530435 31.3229878 22.0906617 31.3229878 22.0906617 0.266351145"></polygon>
        <polygon id="path-5" points="0.000930434783 6.05343511 5.47421304 6.05343511 5.47421304 0.275431298 0.000930434783 0.275431298 0.000930434783 6.05343511"></polygon>
    </defs>
    <g id="Page-1" stroke="none" stroke-width="1" fill="none" fill-rule="evenodd">
        <g id="Desktop-HD-Copy-3" transform="translate(-127.000000, -23.000000)">
            <g id="Page-1" transform="translate(127.000000, 23.000000)">
                <polygon id="Fill-1" fill="#FFFFFF" points="0 25.398584 0 26.4984466 2.46239565 26.4984466 2.46239565 50.8425687 0 50.8425687 0 51.9415 10.6074217 51.9415 10.6074217 50.8425687 8.14502609 50.8425687 8.14502609 26.4984466 10.6074217 26.4984466 10.6074217 25.398584"></polygon>
                <g id="Group-34" transform="translate(10.700000, 0.199298)">
                    <path d="M10.09759,50.642945 L11.612803,50.642945 C14.7697683,50.642945 17.0493335,49.6571664 18.4510335,47.6851435 C19.8527335,45.7135863 20.5538161,42.5159756 20.5538161,38.0918458 C20.5538161,35.6904947 20.3700552,33.7124183 20.0039291,32.1576168 C19.637803,30.6028153 19.0381378,29.3958534 18.2049335,28.5362656 C17.3712639,27.6771435 16.3984943,27.0894947 15.2875552,26.7728534 C14.1761509,26.4571435 12.7493291,26.2992885 11.00709,26.2992885 L10.09759,26.2992885 L10.09759,50.642945 Z M26.6904987,38.015945 C26.6904987,40.6198534 26.3052987,42.8316855 25.5353639,44.6519069 C24.7644987,46.4716626 23.6470465,47.8877008 22.1825422,48.8986244 C20.7175726,49.9100137 19.0818683,50.6368916 17.2768248,51.0787924 C15.4703857,51.5216244 13.3806291,51.742342 11.00709,51.742342 L1.49804652,51.742342 L1.49804652,50.642945 L4.37727696,50.642945 L4.37727696,26.2992885 L1.49804652,26.2992885 L1.49804652,25.199426 L12.0673204,25.199426 C16.9167465,25.199426 20.5659117,26.1982427 23.0162117,28.194945 C25.4655813,30.192113 26.6904987,33.4656244 26.6904987,38.015945 L26.6904987,38.015945 Z" id="Fill-2" fill="#FFFFFF"></path>
                    <path d="M28.4711648,25.1993794 L47.8297909,25.1993794 L48.2084778,32.5175168 L47.3371257,32.5175168 C46.7053604,30.0151198 45.8088865,28.3532191 44.6472387,27.5313489 C43.4855909,26.7104099 41.692643,26.299242 39.26793,26.299242 L36.7673865,26.299242 L36.7673865,37.6368603 L38.3965778,37.6368603 C39.7350083,37.6368603 40.7389474,37.2578221 41.4083952,36.4992802 C42.0773778,35.7407382 42.56353,34.5025779 42.8668517,32.7834023 L43.7005213,32.7834023 L43.7005213,44.0069366 L42.7910213,44.0069366 C42.4123343,42.0107 41.8945474,40.651471 41.2376604,39.9306466 C40.5807735,39.2102878 39.5079822,38.8498756 38.0178909,38.8498756 L36.7673865,38.8498756 L36.7673865,50.6428985 L39.4572735,50.6428985 C41.9824735,50.6428985 43.9401083,50.0682878 45.3292474,48.9176695 C46.7179213,47.7675168 47.6651039,46.0166771 48.1707952,43.665616 L48.966317,43.665616 L48.701143,51.7422954 L28.4711648,51.7422954 L28.4711648,50.6428985 L31.0852213,50.6428985 L31.0852213,26.299242 L28.4711648,26.299242 L28.4711648,25.1993794 Z" id="Fill-4" fill="#FFFFFF"></path>
                    <path d="M59.99169,31.6811649 L56.2755335,41.8080962 L63.4505813,41.8080962 L59.99169,31.6811649 Z M66.4684465,50.6428519 L63.8255465,42.9074931 L55.8726552,42.9074931 L53.0334335,50.6428519 L56.026177,50.6428519 L56.026177,51.7427145 L49.3828726,51.7427145 L49.3828726,50.6428519 L51.6182422,50.6428519 L61.0086552,25.1616153 L63.2482117,25.1616153 L72.1199074,50.6428519 L74.3929596,50.6428519 L74.3929596,51.7427145 L63.5515335,51.7427145 L63.5515335,50.6428519 L66.4684465,50.6428519 Z" id="Fill-6" fill="#FFFFFF"></path>
                    <g id="Group-10" transform="translate(75.365217, 25.145038)">
                        <mask id="mask-2" fill="white">
                            <use xlink:href="#path-1"></use>
                        </mask>
                        <g id="Clip-9"></g>
                        <path d="M0.0815526087,0.0543412214 L12.3935309,0.0543412214 L12.3935309,1.15420382 L8.37777435,1.15420382 L8.37777435,25.4978603 L10.4996309,25.4978603 C12.9490004,25.4978603 14.8117309,24.904158 16.087357,23.7153565 C17.3625178,22.5279519 18.3915787,20.5936466 19.1750048,17.9138374 L20.1221874,17.9138374 L19.5918396,26.5972573 L0.0815526087,26.5972573 L0.0815526087,25.4978603 L2.69560913,25.4978603 L2.69560913,1.15420382 L0.0815526087,1.15420382 L0.0815526087,0.0543412214 Z" id="Fill-8" fill="#FFFFFF" mask="url(#mask-2)"></path>
                    </g>
                    <path d="M8.54767174,23.9227099 L11.0323978,13.2467786 C11.1938283,12.4789237 11.2747761,11.9126947 11.2747761,11.5485573 C11.2747761,10.8612595 10.9914587,10.517145 10.4262196,10.517145 C9.71908913,10.517145 9.02731087,10.9571832 8.35088478,11.8367939 C7.67352826,12.7164046 7.07293261,13.8432748 6.54770217,15.2183359 C5.76008913,17.2606718 5.19438478,20.061084 4.85105435,23.6195725 C2.73012826,23.6195725 1.19444565,23.7201527 0.245402174,23.9227099 L1.48753261,18.281374 L2.63894565,9.9411374 L0.396597826,9.9411374 L0.487780435,9.15279389 L6.9417413,9.15279389 L5.66937174,14.2781908 L5.85080652,14.3689924 C6.17366739,13.6411832 6.50257609,12.9995191 6.83567174,12.4430687 C7.16923261,11.8875496 7.58792826,11.3110763 8.09315435,10.7145802 C8.59791522,10.118084 9.19897609,9.6580229 9.89587174,9.33439695 C10.5927674,9.01123664 11.3552587,8.84919084 12.1838109,8.84919084 C12.9914283,8.84919084 13.6124935,9.05174809 14.0470065,9.4559313 C14.4810543,9.86058015 14.6987761,10.4165649 14.6987761,11.1238855 C14.6987761,11.9327176 14.5271109,12.8528397 14.1833152,13.8837863 L14.3652152,13.9750534 C15.1328239,12.3173435 15.9609109,11.0479847 16.8499413,10.168374 C17.7385065,9.28922901 18.8499109,8.84919084 20.1832239,8.84919084 C21.2132152,8.84919084 22.0059457,9.12206107 22.5618804,9.66826718 C23.1168848,10.2140076 23.3950848,10.9320382 23.3950848,11.8214275 C23.3950848,12.6079084 23.2848283,13.384145 23.0643152,14.1496718 L21.518863,20.3064809 C21.3755761,20.9555954 21.3039326,21.4724656 21.3039326,21.8580229 C21.3039326,22.4461374 21.5770152,22.7399618 22.12225,22.7399618 C22.6874891,22.7399618 23.3341413,22.265 24.0617413,21.314145 L24.7279326,21.830084 C23.73795,23.3061908 22.4051022,24.0437786 20.7284587,24.0437786 C18.4256326,24.0437786 17.2742196,23.0128321 17.2742196,20.9504733 C17.2742196,20.3437328 17.3965717,19.5768092 17.6426717,18.648771 C17.8883065,17.7207328 18.178137,16.6269237 18.5112326,15.3664122 C18.8447935,14.1068321 19.0327413,13.3985802 19.0741457,13.2421221 C19.2881457,12.4756641 19.3951457,11.9103664 19.3951457,11.5466947 C19.3951457,10.8603282 19.0922891,10.517145 18.4861109,10.517145 C17.3751717,10.517145 16.17305,12.0640305 14.8802109,15.1578015 C14.0521239,17.0380916 13.4054717,19.8585267 12.9411848,23.6195725 C11.1026457,23.6195725 9.63860652,23.7201527 8.54767174,23.9227099" id="Fill-11" fill="#FFFFFF"></path>
                    <path d="M29.9397165,6.66553053 C29.1521035,6.66553053 28.5808165,6.48346183 28.2277165,6.11979008 C27.8741513,5.75565267 27.6973687,5.29093511 27.6973687,4.72470611 C27.6973687,3.91633969 27.9802209,3.26396565 28.5459252,2.76851527 C29.1111643,2.27306489 29.8382991,2.02533969 30.7273296,2.02533969 C32.2016035,2.02533969 32.9394383,2.6725916 32.9394383,3.96662977 C32.9394383,4.77499618 32.6561209,5.42737023 32.091347,5.92235496 C31.5251774,6.41827099 30.8078122,6.66553053 29.9397165,6.66553053 M32.2727817,21.2841107 L32.9394383,21.799584 C31.9494557,23.2961794 30.6263774,24.0440115 28.9702035,24.0440115 C26.7073861,24.0440115 25.5764426,23.0028206 25.5764426,20.9199733 C25.5764426,20.1721412 25.7174035,19.1509733 26.0007209,17.8569351 L27.6973687,9.94137023 L25.3038252,9.94137023 L25.4247817,9.15256107 L32.0606426,9.15256107 C31.3367643,12.3683321 30.582647,16.0795534 29.7987557,20.2857595 C29.6703557,21.094126 29.6066209,21.6091336 29.6066209,21.8307824 C29.6066209,22.4370573 29.8685383,22.7401947 30.3942339,22.7401947 C30.9394687,22.7401947 31.5656513,22.2545229 32.2727817,21.2841107" id="Fill-13" fill="#FFFFFF"></path>
                    <path d="M44.3928113,18.5545702 L45.3018461,18.8577076 C45.1199461,19.4849366 44.8775678,20.0707229 44.5747113,20.616929 C44.2718548,21.1626695 43.8675809,21.7084099 43.36282,22.254616 C42.8575939,22.8003565 42.2058243,23.2357382 41.4079765,23.5588985 C40.6101287,23.8815931 39.7159809,24.0441046 38.7264635,24.0441046 C36.8479157,24.0441046 35.408533,23.5337534 34.4087809,22.5125855 C33.4090287,21.4918832 32.90892,20.0707229 32.90892,18.2514328 C32.90892,15.5418221 33.6914157,13.2973947 35.2573374,11.5181504 C36.8223287,9.73937176 38.9995461,8.84951679 41.7871287,8.84951679 C43.2818722,8.84951679 44.4025809,9.18804351 45.1501852,9.86509695 C45.8973243,10.5430817 46.2713591,11.396616 46.2713591,12.4280282 C46.2713591,13.2773718 46.0541026,13.985158 45.6200548,14.5509214 C45.1855417,15.117616 44.5337722,15.4002649 43.6656765,15.4002649 C43.0190243,15.4002649 42.524033,15.2386847 42.1811678,14.9150588 C41.8373722,14.5918985 41.665707,14.1872496 41.665707,13.7020435 C41.665707,13.2168374 41.8271374,12.7008985 42.1504635,12.155158 L43.3018765,12.155158 C43.463307,11.7509748 43.5442548,11.3663489 43.5442548,11.0026771 C43.5442548,10.0727763 43.0292591,9.60759313 41.9988026,9.60759313 C41.1911852,9.60759313 40.4789374,9.8855855 39.8629896,10.4415702 C39.2465765,10.997555 38.7669374,11.7258298 38.423607,12.6254634 C38.0798113,13.5250969 37.8220809,14.4554634 37.6508809,15.4156313 C37.4792157,16.3757992 37.3936157,17.3313107 37.3936157,18.2817 C37.3936157,19.8788756 37.6001722,21.0262344 38.0146809,21.7237763 C38.4282591,22.4213183 39.1102678,22.7700893 40.0597765,22.7700893 C40.9888157,22.7700893 41.8271374,22.3961733 42.5747417,21.6478756 C43.3218809,20.9005092 43.9280591,19.8690969 44.3928113,18.5545702" id="Fill-15" fill="#00D7A3"></path>
                    <path d="M51.9682717,22.7094618 C53.1396891,22.7094618 54.1803804,21.7492939 55.0894152,19.8284924 C55.99845,17.9076908 56.4529674,15.734042 56.4529674,13.3075458 C56.4529674,12.1955763 56.2505978,11.3564771 55.8467891,10.7902481 C55.4425152,10.2244847 54.8870457,9.94137023 54.1803804,9.94137023 C53.0084978,9.94137023 52.0441022,10.8205153 51.2867283,12.5797366 C50.5288891,14.3384924 50.1502022,16.6336756 50.1502022,19.464355 C50.1502022,21.6282252 50.7563804,22.7094618 51.9682717,22.7094618 M62.0583717,21.3749122 L62.6947891,21.8601183 C61.7652848,23.3162023 60.5231543,24.0440115 58.9679326,24.0440115 C56.8870152,24.0440115 55.8467891,23.1751107 55.8467891,21.4359122 C55.8467891,21.0312634 55.9072674,20.5865687 56.0286891,20.1013626 L55.8770283,20.0706298 C54.8265674,22.7197061 53.0489717,24.0440115 50.5442413,24.0440115 C47.453337,24.0440115 45.90835,22.2042328 45.90835,18.5242099 C45.90835,17.3312176 46.064663,16.1736145 46.3777543,15.0514008 C46.6908457,13.9296527 47.145363,12.8982405 47.7413065,11.9580954 C48.3367848,11.0179504 49.124863,10.2645305 50.1050761,9.69876718 C51.0843587,9.13253817 52.1804109,8.84942366 53.3927674,8.84942366 C55.1089543,8.84942366 56.3110761,9.6075 56.9982022,11.1241183 L57.4829587,9.21309542 C59.3815109,9.21309542 60.745063,9.14278244 61.5736152,9.00122519 C60.5026848,14.2784237 59.77555,18.2010496 59.3922109,20.7686374 C59.3512717,21.0112405 59.3312674,21.3041336 59.3312674,21.6477824 C59.3312674,22.0724542 59.396863,22.365813 59.5280543,22.5273931 C59.6597109,22.6899046 59.8769674,22.7699962 60.1798239,22.7699962 C60.7860022,22.7699962 61.4117196,22.3052786 62.0583717,21.3749122" id="Fill-17" fill="#00D7A3"></path>
                    <g id="Group-21" transform="translate(55.360870, 0.000000)">
                        <mask id="mask-4" fill="white">
                            <use xlink:href="#path-3"></use>
                        </mask>
                        <g id="Clip-20"></g>
                        <path d="M7.14090087,25.1671099 L9.82287913,9.94132366 L7.60658348,9.94132366 L7.75591826,9.1525145 L9.96197913,9.1525145 L10.2345965,7.60423206 C10.5983965,5.32022443 11.4325313,3.52607939 12.7370009,2.2222626 C14.0414704,0.918445802 15.7651009,0.266071756 17.9088226,0.266071756 C19.08024,0.266071756 20.0702226,0.549651908 20.8783052,1.11541527 C21.6863878,1.68164427 22.0906617,2.47045344 22.0906617,3.48091145 C22.0906617,4.24969771 21.8631704,4.87599542 21.408653,5.36166718 C20.9541357,5.84687328 20.3633096,6.08947634 19.6361748,6.08947634 C18.9895226,6.08947634 18.4894139,5.91811756 18.1363139,5.5735374 C17.7827487,5.2303542 17.6059661,4.78519389 17.6059661,4.23945344 C17.6059661,3.87531603 17.6762139,3.54191145 17.8181052,3.2383084 L18.9997574,3.11723969 C19.1611878,2.79407939 19.2421357,2.47045344 19.2421357,2.14636183 C19.2421357,1.39899542 18.7969226,1.02461374 17.9055661,1.02461374 C16.9942052,1.02461374 16.3159183,1.4693084 15.87024,2.35869771 C15.4245617,3.24808702 15.0495965,4.61243817 14.7462748,6.4512855 L14.2703574,9.1525145 L18.2423835,9.1525145 L18.1195661,9.94132366 L14.1312574,9.94132366 L11.6516487,24.0164916 C11.2269052,26.4010794 10.4169617,28.2152473 9.2227487,29.4585298 C8.02853565,30.7013466 6.34817043,31.3229878 4.1830487,31.3229878 C3.05164,31.3229878 2.08212696,31.0501176 1.27404435,30.5039115 C0.465961739,29.958171 0.0621530435,29.1893847 0.0621530435,28.1989496 C0.0621530435,27.4301634 0.299413913,26.7833771 0.773935652,26.2581252 C1.24892261,25.731942 1.87975739,25.469316 2.66783565,25.469316 C3.2735487,25.469316 3.75365304,25.6411405 4.10721826,25.9847893 C4.46078348,26.3284382 4.63756609,26.7833771 4.63756609,27.3496061 C4.63756609,27.7137435 4.56685304,28.067171 4.42542696,28.4112855 L3.24377478,28.5626214 C3.06140957,28.8862473 2.97069217,29.1893847 2.97069217,29.4729649 C2.97069217,30.1197511 3.40520522,30.4433771 4.27376609,30.4433771 C4.59709217,30.4433771 4.87994435,30.3977435 5.12232261,30.306942 C5.36470087,30.2156748 5.57684,30.0387282 5.75827478,29.7761023 C5.94017478,29.5130107 6.09183565,29.2704076 6.21279217,29.0482931 C6.33421391,28.8252473 6.46028783,28.4569191 6.59147913,27.9414458 C6.72313565,27.4255069 6.81664435,27.0082855 6.87293565,26.6902473 C6.92922696,26.3712779 7.0185487,25.8637206 7.14090087,25.1671099" id="Fill-19" fill="#00D7A3" mask="url(#mask-4)"></path>
                    </g>
                    <path d="M77.3907739,7.02952824 L80.0569348,1.35792519 L81.5721478,1.02452061 C81.9559522,0.943963359 82.319287,0.994253435 82.6630826,1.17632214 C83.006413,1.35792519 83.1780783,1.66152824 83.1780783,2.08573435 C83.1780783,2.61191756 82.8752217,3.12785649 82.2690435,3.63261985 L77.8452913,7.36293282 L77.3907739,7.02952824 Z M80.7538304,11.8215206 C80.7538304,10.4264366 80.299313,9.72889466 79.3907435,9.72889466 C78.5217174,9.72889466 77.7438739,10.3458794 77.0576783,11.5789176 C76.3705522,12.8124214 75.9258043,14.4100626 75.7239,16.3709099 C76.4710391,16.2903527 77.0925696,16.1841847 77.5875609,16.0524061 C78.0825522,15.9210931 78.5975478,15.6989786 79.133013,15.3851313 C79.668013,15.0717496 80.072287,14.6168107 80.3449043,14.0203145 C80.617987,13.424284 80.7538304,12.690887 80.7538304,11.8215206 L80.7538304,11.8215206 Z M79.8452609,8.84928397 C81.2995304,8.84928397 82.4207043,9.15754351 83.2083174,9.77452824 C83.9963957,10.391513 84.3899696,11.2655359 84.3899696,12.3975282 C84.3899696,14.7634901 82.4509435,16.2796427 78.5724261,16.9469176 C77.6429217,17.0889405 76.6734087,17.179742 75.663887,17.2197878 C75.6434174,17.6649481 75.6331826,18.0993985 75.6331826,18.5240702 C75.6331826,20.0406885 75.8606739,21.1126122 76.3151913,21.7389099 C76.7697087,22.3661389 77.4814913,22.679055 78.4514696,22.679055 C80.5114522,22.679055 82.0061957,21.3249481 82.9357,18.6148718 L83.7540174,18.8882076 C82.6226087,22.3256275 80.3300174,24.0438718 76.8757783,24.0438718 C75.0577087,24.0438718 73.6588,23.548887 72.6790522,22.5579863 C71.6988391,21.5675511 71.2094304,20.1724672 71.2094304,18.3722687 C71.2094304,15.5625435 72.0021609,13.2724824 73.588087,11.5030168 C75.1735478,9.73401679 77.2591174,8.84928397 79.8452609,8.84928397 L79.8452609,8.84928397 Z" id="Fill-22" fill="#00D7A3"></path>
                    <path d="M73.77329,58.6890313 C74.0189248,58.6890313 74.2129204,58.7523595 74.355277,58.8794817 C74.4971683,59.0061382 74.5683465,59.1849473 74.5683465,59.4159092 C74.5683465,59.7465198 74.4664639,60.0133366 74.2631639,60.2172908 C74.0593987,60.4207794 73.8002726,60.5227565 73.4853204,60.5227565 C73.2089813,60.5227565 73.007077,60.447787 72.8805378,60.2978481 C72.7535335,60.1479092 72.6902639,59.9653748 72.6902639,59.750245 C72.6902639,59.4429168 72.7977291,59.1891382 73.0131248,58.9889092 C73.2280552,58.7891458 73.4815987,58.6890313 73.77329,58.6890313" id="Fill-24" fill="#FFFFFF"></path>
                    <g id="Group-28" transform="translate(74.900000, 54.480916)" fill="#FFFFFF">
                        <path d="M4.49632609,3.96597786 L4.84198261,4.08145878 C4.77266522,4.31987099 4.68055217,4.54245115 4.56517826,4.75013053 C4.45026957,4.95780992 4.29628261,5.16548931 4.10461304,5.37270305 C3.91247826,5.58038244 3.66451739,5.74615344 3.36119565,5.86861908 C3.05787391,5.99201603 2.7178,6.05348168 2.34143913,6.05348168 C1.62733043,6.05348168 1.07976957,5.85930611 0.699686957,5.47095496 C0.31913913,5.08260382 0.129330435,4.54245115 0.129330435,3.85049695 C0.129330435,2.82048168 0.426604348,1.96694733 1.02208261,1.29035954 C1.61756087,0.613771756 2.44518261,0.275245038 3.50541304,0.275245038 C4.07344348,0.275245038 4.50004783,0.404229771 4.78429565,0.661733588 C5.06807826,0.919703053 5.21043478,1.24426031 5.21043478,1.63633664 C5.21043478,1.9590313 5.1280913,2.22864198 4.96293913,2.44330611 C4.79732174,2.65890153 4.54982609,2.76646641 4.21952174,2.76646641 C3.97388696,2.76646641 3.78547391,2.70500076 3.65521304,2.58206947 C3.52448696,2.45913817 3.45935652,2.30547405 3.45935652,2.12061145 C3.45935652,1.9362145 3.52076522,1.74017634 3.64358261,1.53249695 L4.08135217,1.53249695 C4.14276087,1.37883282 4.17346522,1.23261908 4.17346522,1.09432137 C4.17346522,0.740893893 3.9776087,0.563481679 3.58589565,0.563481679 C3.27838696,0.563481679 3.00763043,0.669649618 2.77362609,0.881054198 C2.53915652,1.09245878 2.3567913,1.3690542 2.22653043,1.71130611 C2.09580435,2.05355802 1.99764348,2.4069855 1.93251304,2.77251985 C1.86738261,3.13758855 1.83435217,3.50079466 1.83435217,3.86213817 C1.83435217,4.46980992 1.91343913,4.9061229 2.07068261,5.1710771 C2.2283913,5.43649695 2.48751739,5.56920687 2.84852609,5.56920687 C3.20162609,5.56920687 3.52076522,5.42671832 3.80501304,5.14220687 C4.08926087,4.85816107 4.31954348,4.46608473 4.49632609,3.96597786" id="Fill-26"></path>
                    </g>
                    <g id="Group-31" transform="translate(80.017391, 54.480916)">
                        <mask id="mask-6" fill="white">
                            <use xlink:href="#path-5"></use>
                        </mask>
                        <g id="Clip-30"></g>
                        <path d="M3.78035652,3.30866794 C3.88037826,2.67026336 3.93015652,2.15944656 3.93015652,1.77482061 C3.93015652,0.959935115 3.66916957,0.552492366 3.14673043,0.552492366 C2.7471087,0.552492366 2.44006522,0.754118321 2.22513478,1.15783588 C2.00973913,1.56155344 1.82923478,2.17853817 1.68362174,3.00879008 C1.5756913,3.63927863 1.5221913,4.16220229 1.5221913,4.57709542 C1.5221913,5.36916412 1.79108696,5.76496565 2.32841304,5.76496565 C2.74338696,5.76496565 3.05275652,5.57684351 3.25652174,5.20013359 C3.45982174,4.82342366 3.63474348,4.19293511 3.78035652,3.30866794 M2.24793043,6.05366794 C1.50265217,6.05366794 0.942065217,5.86508015 0.565704348,5.48837023 C0.189343478,5.11166031 0.000930434783,4.57337023 0.000930434783,3.8735 C0.000930434783,2.87421756 0.289365217,2.02487405 0.865304348,1.32500382 C1.4417087,0.625133588 2.2363,0.275431298 3.25047391,0.275431298 C4.73265652,0.275431298 5.47421304,0.99439313 5.47421304,2.43231679 C5.47421304,3.4856145 5.18205652,4.35218702 4.59867391,5.03296565 C4.01482609,5.71327863 3.23093478,6.05366794 2.24793043,6.05366794" id="Fill-29" fill="#FFFFFF" mask="url(#mask-6)"></path>
                    </g>
                    <path d="M88.84424,60.4882053 L89.7890965,56.4286786 C89.8505052,56.1367168 89.8812096,55.9211214 89.8812096,55.7828237 C89.8812096,55.5215947 89.7737443,55.3907473 89.5588139,55.3907473 C89.2899183,55.3907473 89.0266052,55.5579153 88.76934,55.8922511 C88.5120748,56.2270527 88.283653,56.6554496 88.0840748,57.1783733 C87.7844748,57.9550756 87.5690791,59.0195489 87.4388183,60.3727244 C86.6321313,60.3727244 86.0482835,60.4113733 85.6872748,60.4882053 L86.1594704,58.3429611 L86.59724,55.1714267 L85.7449617,55.1714267 L85.7793878,54.8715489 L88.2338748,54.8715489 L87.7495835,56.820755 L87.8189009,56.855213 C87.9417183,56.5786176 88.0668617,56.3346176 88.1934009,56.1227473 C88.31994,55.9113427 88.4795096,55.6924878 88.6716443,55.4657168 C88.8633139,55.2389458 89.0922009,55.0638618 89.3573748,54.9409305 C89.6220835,54.8179992 89.9119139,54.7560679 90.2268661,54.7560679 C90.5339096,54.7560679 90.77024,54.8333656 90.9358574,54.9870298 C91.1010096,55.1411595 91.183353,55.3520985 91.183353,55.6212435 C91.183353,55.9290374 91.1182226,56.2787397 90.9874965,56.670816 L91.0563487,56.705274 C91.3485052,56.0747855 91.6634574,55.5923733 92.0016704,55.2580374 C92.3394183,54.9237015 92.7618357,54.7560679 93.2689226,54.7560679 C93.6606357,54.7560679 93.9620965,54.8603733 94.1733052,55.067587 C94.3845139,55.2752664 94.4901183,55.5486023 94.4901183,55.8866634 C94.4901183,56.1856099 94.4482487,56.4808313 94.3645096,56.7718618 L93.77694,59.1131443 C93.7225096,59.3599382 93.6950617,59.5569076 93.6950617,59.7031214 C93.6950617,59.9266328 93.7988052,60.0383885 94.0062922,60.0383885 C94.2212226,60.0383885 94.4673226,59.8577168 94.7436617,59.4963733 L94.9972052,59.6924115 C94.6208443,60.253984 94.1137574,60.5343046 93.4764096,60.5343046 C92.6004052,60.5343046 92.1626357,60.1422282 92.1626357,59.3580756 C92.1626357,59.1275794 92.2091574,58.8356176 92.3026661,58.4826557 C92.3961748,58.1301595 92.5064313,57.7138695 92.6334357,57.2347168 C92.7599748,56.7555641 92.831153,56.4864191 92.8469704,56.426816 C92.9283835,56.1353198 92.9693226,55.9201901 92.9693226,55.782358 C92.9693226,55.521129 92.8539487,55.3907473 92.6236661,55.3907473 C92.2012487,55.3907473 91.74394,55.9788618 91.2526704,57.1550908 C90.9377183,57.8703275 90.6916183,58.9427168 90.5148357,60.3727244 C89.8160791,60.3727244 89.2592139,60.4113733 88.84424,60.4882053" id="Fill-32" fill="#FFFFFF"></path>
                </g>
            </g>
        </g>
    </g>
</svg>